<svg width="150" height="50" viewBox="0 0 150 50" fill="none" xmlns="http://www.w3.org/2000/svg">
<path d="M30.0301 24.7C29.7301 22.2 31.7301 20 33.1301 20C33.6301 20 46.2301 22.5 46.2301 22.5C46.8301 20.7 48.0301 16.9 50.1301 14.5C53.9301 10 57.9301 7 60.0301 7C61.1301 7 62.5301 8 62.5301 10.3C62.5301 13.6 58.6301 13.9 55.5301 17.4C54.4301 18.8 52.9301 21.1 52.4301 23.4C52.4301 23.4 63.1301 25.1 76.3301 25.1C83.6301 25.1 93.6301 24.1 101.13 22.5C111.03 20.4 116.43 17.6 118.13 17.6C119.53 17.6 120.03 18.4 120.13 19.3C120.23 20.7 119.63 21.7 119.03 22.4C116.93 24.8 112.63 26.5 104.33 28.3C95.7301 30.1 86.1301 30.8 77.1301 30.8C65.3301 30.8 54.6301 29.3 52.5301 29.1C53.1301 33.5 57.3301 38.1 59.2301 39.4C60.1301 40.1 60.2301 40.7 60.2301 41.1C60.1301 42.2 58.9301 43.6 56.1301 43.6C51.6301 43.6 30.4301 27.8 30.0301 24.7ZM40.9301 27.4L46.4301 31.5C46.4301 31.5 45.9301 30.6 45.8301 28.1L40.9301 27.4Z" fill="white"/>
</svg>
